<svg id="Layer_1" data-name="Layer 1" xmlns="http://www.w3.org/2000/svg" viewBox="0 0 102 102"><defs><style>.cls-1{fill:#966dc0;}.cls-2{fill:#f20587;}.cls-3{fill:#2578e0;}</style></defs><g id="logo"><g id="Group_669" data-name="Group 669"><path id="Path_114" data-name="Path 114" class="cls-1" d="M1,85.9A15.12,15.12,0,1,0,16.11,70.79h0A15.12,15.12,0,0,0,1,85.9"/><path id="Path_115" data-name="Path 115" class="cls-2" d="M1,51A15.12,15.12,0,1,0,16.11,35.9h0A15.11,15.11,0,0,0,1,51"/><path id="Path_116" data-name="Path 116" class="cls-2" d="M1,16.1A15.12,15.12,0,1,0,16.11,1h0A15.11,15.11,0,0,0,1,16.1"/><path id="Path_117" data-name="Path 117" class="cls-1" d="M35.88,51A15.12,15.12,0,1,0,51,35.9h0A15.11,15.11,0,0,0,35.88,51"/><path id="Path_118" data-name="Path 118" class="cls-2" d="M35.88,16.1A15.12,15.12,0,1,0,51,1h0A15.11,15.11,0,0,0,35.88,16.1"/><path id="Path_119" data-name="Path 119" class="cls-3" d="M70.77,85.9A15.12,15.12,0,1,0,85.89,70.79h0A15.12,15.12,0,0,0,70.77,85.9"/><path id="Path_120" data-name="Path 120" class="cls-1" d="M70.77,16.1A15.12,15.12,0,1,0,85.89,1h0A15.11,15.11,0,0,0,70.77,16.1"/></g></g></svg>